<?xml version="1.0" encoding="UTF-8"?>
<svg width="60px" height="59px" viewBox="0 0 60 59" version="1.1" xmlns="http://www.w3.org/2000/svg" xmlns:xlink="http://www.w3.org/1999/xlink">
    <!-- Generator: Sketch 51.3 (57544) - http://www.bohemiancoding.com/sketch -->
    <title>041 - Message In A Bottle</title>
    <desc>Created with Sketch.</desc>
    <defs></defs>
    <g id="Page-1" stroke="none" stroke-width="1" fill="none" fill-rule="evenodd">
        <g id="041---Message-In-A-Bottle" fill-rule="nonzero">
            <path d="M45.46,8.33 L44.91,10.25 C44.7541698,10.7798083 44.2023641,11.0868615 43.67,10.94 L41.75,10.39 L34.06,8.17 L32.14,7.62 C31.6108207,7.46959673 31.3025095,6.91999854 31.45,6.39 L32,4.46 C32.1574033,3.93203217 32.7101975,3.62888692 33.24,3.78 L35.16,4.33 L42.85,6.54 L44.77,7.09 C45.026452,7.16213341 45.2435209,7.33361366 45.3730572,7.56640364 C45.5025936,7.79919363 45.5338884,8.07404815 45.46,8.33 Z" id="Shape" fill="#24AE5F"></path>
            <path d="M43.68,3.66 L42.85,6.54 L35.16,4.33 L35.99,1.45 C36.2977254,0.387815717 37.407025,-0.224982871 38.47,0.08 L42.31,1.18 C43.3721843,1.48772538 43.9849829,2.59702502 43.68,3.66 Z" id="Shape" fill="#CB8252"></path>
            <path d="M41.75,10.39 L41.2,12.31 C40.8849535,13.3663122 39.7819017,13.9756594 38.72,13.68 L34.88,12.57 C33.8365495,12.2690077 33.2239665,11.1903289 33.5,10.14 L34.06,8.17 L41.75,10.39 Z" id="Shape" fill="#33907C"></path>
            <path d="M46.73,32.98 L41.61,50.78 C39.3382909,50.531655 37.0400272,50.7217625 34.84,51.34 C31.6801479,52.220173 28.3398521,52.220173 25.18,51.34 L25.17,51.34 C22.0114954,50.4500217 18.6685046,50.4500217 15.51,51.34 L15.5,51.34 C13.674884,51.8449255 11.7819453,52.0608758 9.89,51.98 L17.89,24.69 C18.6495283,22.0504844 20.8825235,20.0990578 23.6,19.7 L29.18,18.88 C30.3408775,18.6985205 31.2940737,17.8659329 31.63,16.74 L33.5,10.14 C33.2239665,11.1903289 33.8365495,12.2690077 34.88,12.57 L38.72,13.68 C39.7819017,13.9756594 40.8849535,13.3663122 41.2,12.31 L39.31,18.95 C38.9940865,20.0812341 39.3603853,21.2931377 40.25,22.06 L44.55,25.72 C46.6392287,27.5019717 47.4919833,30.3418792 46.73,32.98 Z" id="Shape" fill="#7ED09E"></path>
            <path d="M38.18,29.46 C35.8552847,33.0082519 34.1006872,36.8987346 32.98,40.99 C31.9348494,44.5572496 31.3534016,48.2442339 31.25,51.96 C30.84,51.99 30.42,52 30.01,52 C28.3775917,51.9989937 26.7528347,51.7769772 25.18,51.34 L25.17,51.34 C23.4264632,50.8528384 21.619636,50.630356 19.81,50.68 C22.2986201,47.0529902 24.1517488,43.0288604 25.29,38.78 C26.5180328,34.7097351 27.0918465,30.4702645 26.99,26.22 C27.35,27.24 29.46,28.52 32.17,29.31 C34.87,30.08 37.31,30.12 38.18,29.46 Z" id="Shape" fill="#26B99A"></path>
            <path d="M38.49,29.04 L38.48,29.05 C38.45,29.09 38.35,29.23 38.18,29.46 C37.31,30.12 34.87,30.08 32.17,29.31 C29.46,28.52 27.35,27.24 26.99,26.22 C26.98,25.9 26.96,25.73 26.96,25.73 C27.27,24.67 30.09,24.55 33.28,25.46 C36.47,26.37 38.8,27.98 38.49,29.04 Z" id="Shape" fill="#33907C"></path>
            <path d="M31.451,42.255 C30.4785989,42.2388211 29.5132426,42.0866799 28.583,41.803 C25.46,40.903 24.564,39.527 24.417,39.261 C24.1408576,38.7821691 24.3051691,38.1701424 24.784,37.894 C25.2628309,37.6178576 25.8748576,37.7821691 26.151,38.261 C26.192,38.32 26.851,39.221 29.135,39.877 C31.484,40.551 32.517,40.097 32.527,40.091 C33.0180437,39.8620932 33.6023168,40.0587574 33.855,40.538 C34.1047295,41.0108698 33.9310911,41.5966221 33.464,41.857 C32.835656,42.1523252 32.1444537,42.2889862 31.451,42.255 Z" id="Shape" fill="#955BA5"></path>
            <path d="M36.5,44.91 C36.0044891,44.9081179 35.5116903,44.8367563 35.036,44.698 C32.879,44.078 31.555,42.326 32.02,40.71 C32.3070185,39.8305611 33.0192928,39.1559136 33.913,38.917 C34.8213181,38.65091 35.7876062,38.6561238 36.693,38.932 C38.849,39.552 40.173,41.304 39.709,42.92 C39.2074211,44.2285579 37.8951303,45.0423499 36.5,44.91 Z M35.229,40.721 C34.9889681,40.7182657 34.7499118,40.7519831 34.52,40.821 C34.2695211,40.8707474 34.0561366,41.0335545 33.942,41.262 C33.83,41.653 34.415,42.437 35.588,42.775 C36.761,43.113 37.674,42.757 37.788,42.366 C37.902,41.975 37.315,41.19 36.141,40.853 C35.8442619,40.7668677 35.5369825,40.7224418 35.228,40.721 L35.229,40.721 Z" id="Shape" fill="#955BA5"></path>
            <path d="M10.667,53 C8.94648909,52.9978587 7.2342169,52.7623792 5.577,52.3 L0.733,50.964 C0.388595958,50.8686101 0.121243408,50.5967288 0.0316514736,50.2507712 C-0.0579404606,49.9048136 0.0438393676,49.5373389 0.29865148,49.2867712 C0.553463593,49.0362035 0.922595966,48.9406101 1.267,49.036 L6.11,50.376 C9.09354228,51.2120118 12.2494577,51.2120118 15.233,50.376 C18.5686404,49.4404303 22.0973596,49.4404303 25.433,50.376 C28.4191902,51.2149825 31.5788098,51.2149825 34.565,50.376 C37.900605,49.440173 41.429395,49.440173 44.765,50.376 C47.7509118,51.2170008 50.9110882,51.2170008 53.897,50.376 L58.727,49.039 C59.071404,48.9436101 59.4405364,49.0392035 59.6953485,49.2897712 C59.9501606,49.5403389 60.0519404,49.9078136 59.9623485,50.2537712 C59.8727566,50.5997288 59.605404,50.8716101 59.261,50.967 L54.437,52.3 C51.1016081,53.2373741 47.5723919,53.2373741 44.237,52.3 C41.2517656,51.4614761 38.0932344,51.4614761 35.108,52.3 C31.7724163,53.2359815 28.2435837,53.2359815 24.908,52.3 C21.922081,51.4615144 18.762919,51.4615144 15.777,52.3 C14.1131381,52.7632397 12.3941439,52.9987183 10.667,53 Z" id="Shape" fill="#3B97D3"></path>
            <path d="M10.667,59 C8.94648909,58.9978587 7.2342169,58.7623792 5.577,58.3 L0.733,56.964 C0.388595958,56.8686101 0.121243408,56.5967288 0.0316514736,56.2507712 C-0.0579404606,55.9048136 0.0438393676,55.5373389 0.29865148,55.2867712 C0.553463593,55.0362035 0.922595966,54.9406101 1.267,55.036 L6.11,56.376 C9.09354228,57.2120118 12.2494577,57.2120118 15.233,56.376 C18.5686404,55.4404303 22.0973596,55.4404303 25.433,56.376 C28.4191902,57.2149825 31.5788098,57.2149825 34.565,56.376 C37.900605,55.440173 41.429395,55.440173 44.765,56.376 C47.7509118,57.2170008 50.9110882,57.2170008 53.897,56.376 L58.727,55.039 C59.071404,54.9436101 59.4405364,55.0392035 59.6953485,55.2897712 C59.9501606,55.5403389 60.0519404,55.9078136 59.9623485,56.2537712 C59.8727566,56.5997288 59.605404,56.8716101 59.261,56.967 L54.437,58.3 C51.1016081,59.2373741 47.5723919,59.2373741 44.237,58.3 C41.2517656,57.4614761 38.0932344,57.4614761 35.108,58.3 C31.7724163,59.2359815 28.2435837,59.2359815 24.908,58.3 C21.922081,57.4615144 18.762919,57.4615144 15.777,58.3 C14.1131381,58.7632397 12.3941439,58.9987183 10.667,59 Z" id="Shape" fill="#3B97D3"></path>
        </g>
    </g>
</svg>