<?xml version="1.0" encoding="UTF-8"?>
<svg width="60px" height="60px" viewBox="0 0 60 60" version="1.1" xmlns="http://www.w3.org/2000/svg" xmlns:xlink="http://www.w3.org/1999/xlink">
    <!-- Generator: Sketch 43.2 (39069) - http://www.bohemiancoding.com/sketch -->
    <title>38 -Buoy- (ocean, sea, water)</title>
    <desc>Created with Sketch.</desc>
    <defs></defs>
    <g id="Page-1" stroke="none" stroke-width="1" fill="none" fill-rule="evenodd">
        <g id="Icons" transform="translate(-912.000000, -730.000000)">
            <g id="38--Buoy--(ocean,-sea,-water)" transform="translate(912.000000, 730.000000)">
                <path d="M29.0005,33.002 C28.4475,33.002 28.0005,32.554 28.0005,32.002 L28.0005,1.002 C28.0005,0.45 28.4475,0.002 29.0005,0.002 C29.5535,0.002 30.0005,0.45 30.0005,1.002 L30.0005,32.002 C30.0005,32.554 29.5535,33.002 29.0005,33.002" id="Fill-90" fill="#B49313"></path>
                <path d="M22.3024,48.2991 C23.4924,47.8101 24.8394,47.8481 25.9994,48.4281 L26.0014,48.4291 C27.2594,49.0581 28.7414,49.0581 29.9994,48.4291 L30.0014,48.4281 C31.2594,47.7991 32.7414,47.7991 34.0004,48.4281 L34.0004,48.4281 C34.6414,48.1081 35.3414,47.9521 36.0394,47.9581 L37.5874,46.4101 C39.4714,44.5261 39.4714,41.4711 37.5874,39.5871 L30.7104,32.7101 C29.7664,31.7661 28.2344,31.7661 27.2904,32.7101 L20.4134,39.5871 C18.5294,41.4711 18.5294,44.5261 20.4134,46.4101 L22.3024,48.2991 Z" id="Fill-91" fill="#F0C419"></path>
                <path d="M19.1132,44.0026 L38.8882,44.0026 C39.1802,42.6246 38.8502,41.1576 37.9272,40.0026 L20.0742,40.0026 C19.1512,41.1576 18.8212,42.6246 19.1132,44.0026" id="Fill-92" fill="#E64C3C"></path>
                <path d="M58.9995,55.4283 C58.8495,55.4283 58.6965,55.3943 58.5535,55.3233 L56.3495,54.2203 C55.4625,53.7763 54.4275,53.7343 53.5085,54.1023 L52.2355,54.6113 C50.7865,55.1923 49.1545,55.1233 47.7575,54.4253 L47.5535,54.3233 C47.0595,54.0753 46.8585,53.4753 47.1055,52.9813 C47.3535,52.4863 47.9545,52.2863 48.4475,52.5333 L48.6515,52.6363 C49.5385,53.0783 50.5755,53.1213 51.4925,52.7543 L52.7655,52.2453 C54.2135,51.6673 55.8445,51.7333 57.2435,52.4313 L59.4475,53.5333 C59.9415,53.7813 60.1425,54.3813 59.8955,54.8753 C59.7195,55.2263 59.3665,55.4283 58.9995,55.4283" id="Fill-403" fill="#4482C3"></path>
                <path d="M34.0005,55.3697 C33.1595,55.3697 32.3185,55.1787 31.5535,54.7957 C30.5805,54.3087 29.4205,54.3087 28.4475,54.7957 C27.9535,55.0417 27.3545,54.8427 27.1055,54.3487 C26.8585,53.8547 27.0595,53.2537 27.5535,53.0067 C29.0835,52.2397 30.9145,52.2407 32.4465,53.0057 C33.4195,53.4927 34.5815,53.4927 35.5525,53.0067 C35.5625,53.0017 35.5715,52.9967 35.5815,52.9927 C37.1065,52.2397 38.9245,52.2447 40.4475,53.0057 C40.9415,53.2527 41.1425,53.8537 40.8955,54.3477 C40.6465,54.8417 40.0475,55.0417 39.5535,54.7947 C38.5805,54.3087 37.4215,54.3087 36.4485,54.7947 C36.4385,54.7997 36.4295,54.8047 36.4195,54.8087 C35.6605,55.1827 34.8305,55.3697 34.0005,55.3697" id="Fill-404" fill="#4482C3"></path>
                <path d="M1.0005,55.4288 C0.6045,55.4288 0.2285,55.1908 0.0715,54.7998 C-0.1335,54.2868 0.1165,53.7048 0.6295,53.4998 L3.7655,52.2458 C5.2145,51.6658 6.8465,51.7348 8.2435,52.4318 L8.4475,52.5338 C9.4215,53.0208 10.5805,53.0198 11.5525,52.5338 C11.5625,52.5298 11.5715,52.5248 11.5815,52.5208 C13.1085,51.7678 14.9265,51.7738 16.4475,52.5338 C17.4205,53.0198 18.5795,53.0208 19.5525,52.5338 C19.6175,52.5018 19.6865,52.4758 19.7575,52.4588 C20.2925,52.3238 20.8365,52.6498 20.9705,53.1858 C21.0895,53.6618 20.8465,54.1438 20.4145,54.3398 C18.8885,55.0898 17.0735,55.0838 15.5535,54.3238 C14.5805,53.8368 13.4215,53.8368 12.4485,54.3228 C12.4385,54.3278 12.4295,54.3318 12.4195,54.3368 C10.8935,55.0898 9.0755,55.0848 7.5535,54.3238 L7.3495,54.2208 C6.4615,53.7768 5.4245,53.7348 4.5085,54.1028 L1.3715,55.3568 C1.2505,55.4058 1.1245,55.4288 1.0005,55.4288" id="Fill-405" fill="#4482C3"></path>
                <path d="M2.9995,50.4288 C2.6035,50.4288 2.2275,50.1908 2.0705,49.7998 C1.8655,49.2868 2.1155,48.7048 2.6285,48.4998 L5.7645,47.2458 C7.2135,46.6648 8.8465,46.7338 10.2425,47.4328 L10.4455,47.5328 C11.4205,48.0208 12.5815,48.0208 13.5525,47.5338 C15.0845,46.7678 16.9145,46.7678 18.4465,47.5338 C19.4185,48.0198 20.5785,48.0218 21.5525,47.5338 C23.0845,46.7678 24.9145,46.7678 26.4465,47.5338 C27.4195,48.0198 28.5815,48.0208 29.5525,47.5338 C29.5615,47.5298 29.5715,47.5248 29.5815,47.5208 C30.9615,46.8408 32.5775,46.7798 34.0005,47.3348 C35.4335,46.7758 37.0625,46.8418 38.4465,47.5338 C39.4195,48.0198 40.5815,48.0208 41.5525,47.5338 C41.5625,47.5298 41.5715,47.5248 41.5815,47.5208 C43.1095,46.7678 44.9275,46.7738 46.4475,47.5338 L46.6515,47.6358 C47.5385,48.0788 48.5755,48.1218 49.4925,47.7548 L50.7655,47.2458 C52.2125,46.6668 53.8445,46.7338 55.2435,47.4318 L57.4475,48.5338 C57.9415,48.7808 58.1425,49.3818 57.8955,49.8758 C57.6475,50.3688 57.0475,50.5708 56.5535,50.3228 L54.3495,49.2208 C53.4625,48.7768 52.4275,48.7338 51.5085,49.1028 L50.2355,49.6118 C48.7865,50.1918 47.1545,50.1238 45.7575,49.4248 L45.5535,49.3228 C44.5795,48.8358 43.4205,48.8368 42.4485,49.3228 C42.4385,49.3278 42.4295,49.3318 42.4195,49.3368 C40.8925,50.0898 39.0745,50.0848 37.5535,49.3238 C36.5805,48.8368 35.4185,48.8368 34.4475,49.3228 C34.1665,49.4638 33.8345,49.4638 33.5535,49.3228 C32.5795,48.8358 31.4205,48.8368 30.4485,49.3228 C30.4385,49.3278 30.4295,49.3318 30.4195,49.3368 C28.8925,50.0898 27.0745,50.0848 25.5535,49.3238 C24.5805,48.8368 23.4185,48.8368 22.4475,49.3228 C20.9145,50.0898 19.0855,50.0888 17.5525,49.3238 C16.5795,48.8368 15.4205,48.8368 14.4475,49.3228 C12.9155,50.0888 11.0855,50.0898 9.5535,49.3238 L9.3505,49.2218 C8.4605,48.7768 7.4245,48.7348 6.5065,49.1028 L3.3705,50.3568 C3.2495,50.4058 3.1235,50.4288 2.9995,50.4288" id="Fill-406" fill="#4482C3"></path>
                <path d="M58.9995,60.0025 C58.8495,60.0025 58.6965,59.9685 58.5535,59.8975 L56.3495,58.7945 C55.4615,58.3515 54.4265,58.3105 53.5085,58.6765 L52.2355,59.1855 C50.7865,59.7645 49.1535,59.6975 47.7575,58.9995 C47.2635,58.7525 47.0625,58.1515 47.3105,57.6575 C47.5585,57.1625 48.1575,56.9625 48.6515,57.2105 C49.5365,57.6525 50.5735,57.6965 51.4935,57.3285 L52.7655,56.8195 C54.2145,56.2395 55.8485,56.3085 57.2435,57.0055 L59.4475,58.1075 C59.9415,58.3555 60.1425,58.9555 59.8955,59.4495 C59.7195,59.8005 59.3665,60.0025 58.9995,60.0025" id="Fill-407" fill="#4482C3"></path>
                <path d="M34.0005,59.4718 C33.1595,59.4718 32.3185,59.2808 31.5535,58.8978 C31.0595,58.6508 30.8585,58.0498 31.1055,57.5558 C31.3535,57.0618 31.9525,56.8618 32.4465,57.1078 C33.4195,57.5948 34.5815,57.5948 35.5525,57.1088 C35.5625,57.1038 35.5715,57.0988 35.5815,57.0948 C37.1065,56.3418 38.9245,56.3468 40.4475,57.1078 C40.9415,57.3548 41.1425,57.9558 40.8955,58.4498 C40.6465,58.9438 40.0475,59.1438 39.5535,58.8968 C38.5805,58.4108 37.4215,58.4108 36.4485,58.8968 C36.4385,58.9018 36.4295,58.9068 36.4195,58.9108 C35.6605,59.2848 34.8305,59.4718 34.0005,59.4718" id="Fill-408" fill="#4482C3"></path>
                <path d="M18.0005,59.4718 C17.1595,59.4718 16.3195,59.2798 15.5535,58.8968 C15.0595,58.6498 14.8585,58.0498 15.1055,57.5548 C15.3595,57.0508 15.9785,56.8518 16.4785,57.1238 C17.4715,57.6638 18.6965,57.4948 19.7255,57.0258 C20.8625,56.5068 22.1455,56.3978 23.3455,56.6998 C23.9465,56.8508 24.2245,57.5528 23.9485,58.1068 L23.9485,58.1068 C23.7355,58.5338 23.2565,58.7308 22.7915,58.6228 C22.0095,58.4408 21.1755,58.5328 20.4485,58.8968 C19.6825,59.2798 18.8405,59.4718 18.0005,59.4718" id="Fill-409" fill="#4482C3"></path>
                <path d="M1.0005,60.003 C0.6045,60.003 0.2285,59.765 0.0715,59.374 C-0.1335,58.861 0.1165,58.279 0.6295,58.074 L3.7655,56.82 C5.2145,56.24 6.8465,56.308 8.2435,57.006 L8.4495,57.109 C8.9425,57.357 9.1425,57.959 8.8945,58.452 C8.6465,58.945 8.0485,59.145 7.5515,58.897 L7.3475,58.794 C6.4645,58.352 5.4275,58.308 4.5075,58.677 L1.3715,59.931 C1.2505,59.98 1.1245,60.003 1.0005,60.003" id="Fill-410" fill="#4482C3"></path>
                <path d="M29.0005,16.002 C28.8095,16.002 28.6185,15.947 28.4535,15.839 C28.1705,15.654 28.0005,15.339 28.0005,15.002 L28.0005,1.002 C28.0005,0.665 28.1705,0.35 28.4535,0.165 C28.7355,-0.019 29.0935,-0.05 29.4005,0.086 L45.4005,7.086 C45.7655,7.245 46.0005,7.605 46.0005,8.002 C46.0005,8.399 45.7655,8.759 45.4005,8.918 L29.4005,15.918 C29.2725,15.974 29.1365,16.002 29.0005,16.002" id="Fill-411" fill="#E64C3C"></path>
            </g>
        </g>
    </g>
</svg>