<?xml version="1.0" encoding="UTF-8" standalone="no"?>
<!DOCTYPE svg PUBLIC "-//W3C//DTD SVG 1.1//EN" "http://www.w3.org/Graphics/SVG/1.1/DTD/svg11.dtd">
<svg version="1.1" xmlns="http://www.w3.org/2000/svg" xmlns:xlink="http://www.w3.org/1999/xlink" preserveAspectRatio="xMidYMid meet" viewBox="-1.0000300263749997 -0.999969951975 62.000103206151266 62.000000001974996" width="58" height="58"><defs><path d="M33 0.28C30.35 -0.09 27.65 -0.09 25 0.28C12.16 2.06 2.06 12.16 0.28 25C-0.09 27.65 -0.09 30.35 0.28 33C2.06 45.84 12.16 55.94 25 57.72C27.65 58.09 30.35 58.09 33 57.72C45.84 55.94 55.94 45.84 57.72 33C58.09 30.35 58.09 27.65 57.72 25C55.94 12.16 45.84 2.06 33 0.28ZM25 46.54C18.25 45.01 12.99 39.75 11.46 33C10.85 30.37 10.85 27.63 11.46 25C12.99 18.25 18.25 12.99 25 11.46C27.63 10.85 30.37 10.85 33 11.46C39.75 12.99 45.01 18.25 46.54 25C47.15 27.63 47.15 30.37 46.54 33C45.01 39.75 39.75 45.01 33 46.54C30.37 47.15 27.63 47.15 25 46.54Z" id="b1Bi82JjrU"></path><path d="M33 11.46C30.37 10.85 27.63 10.85 25 11.46C25 10.34 25 1.4 25 0.28C27.65 -0.09 30.35 -0.09 33 0.28C33 2.52 33 10.34 33 11.46Z" id="aAe4NgGU0"></path><path d="M46.54 25C45.01 18.25 39.75 12.99 33 11.46C33 10.34 33 1.4 33 0.28C45.84 2.06 55.94 12.16 57.72 25C55.48 25 47.66 25 46.54 25Z" id="a2Pk76Jlte"></path><path d="M57.72 33C56.6 33 47.66 33 46.54 33C47.15 30.37 47.15 27.63 46.54 25C47.66 25 56.6 25 57.72 25C57.91 26.32 58 27.66 58 29C58 30.34 57.91 31.68 57.72 33Z" id="cIwuRUTt7"></path><path d="M33 57.72C33 56.6 33 47.66 33 46.54C39.75 45.01 45.01 39.75 46.54 33C47.29 33 51.01 33 57.72 33C49.8 48.29 41.56 56.53 33 57.72Z" id="b1wwprBbXM"></path><path d="M33 57.72C30.35 58.09 27.65 58.09 25 57.72C25 56.6 25 47.66 25 46.54C27.63 47.15 30.37 47.15 33 46.54C33 48.78 33 56.6 33 57.72Z" id="b2roaLEAZS"></path><path d="M25 57.72C12.16 55.94 2.06 45.84 0.28 33C1.4 33 10.34 33 11.46 33C12.99 39.75 18.25 45.01 25 46.54C25 48.78 25 56.6 25 57.72Z" id="a2brTPW2Tb"></path><path d="M33 54.72C33 53.9 33 47.36 33 46.54C39.75 45.01 45.01 39.75 46.54 33C47.25 33 50.78 33 57.14 33C48.87 46.39 40.82 53.63 33 54.72Z" id="a6m8CICDZj"></path><path d="M33 54.72C30.35 55.09 27.65 55.09 25 54.72C25 53.9 25 47.36 25 46.54C27.63 47.15 30.37 47.15 33 46.54C33 48.18 33 53.9 33 54.72Z" id="b3IrT4kz9"></path><path d="M25 54.72C13.27 53.09 3.71 44.49 0.86 33C1.92 33 10.4 33 11.46 33C12.99 39.75 18.25 45.01 25 46.54C25 48.18 25 53.9 25 54.72Z" id="dduhvALKp"></path><path d="M11.46 33C10.34 33 1.4 33 0.28 33C-0.09 30.35 -0.09 27.65 0.28 25C1.4 25 10.34 25 11.46 25C11.15 26.31 11 27.65 11 29C11 30.35 11.15 31.69 11.46 33Z" id="c1hEwXYYCD"></path><path d="M25 11.46C18.25 12.99 12.99 18.25 11.46 25C10.34 25 1.4 25 0.28 25C2.06 12.16 12.16 2.06 25 0.28C25 2.52 25 10.34 25 11.46Z" id="b15OhRfEa7"></path><path d="M25 11.46C18.25 12.99 12.99 18.25 11.46 25C11.41 25 11.05 25 11 25C11 16.6 16.81 9.32 25 7.46C25 8.26 25 11.06 25 11.46Z" id="bG7oDjfP6"></path><path d="M46.54 25C45.01 18.25 39.75 12.99 33 11.46C33 11.06 33 7.86 33 7.46C41.19 9.32 47 16.6 47 25C46.91 25 46.59 25 46.54 25Z" id="g59G19VJtQ"></path><path d="M33 11.46C30.37 10.85 27.63 10.85 25 11.46C25 11.06 25 7.86 25 7.46C27.63 6.85 30.37 6.85 33 7.46C33 8.26 33 11.06 33 11.46Z" id="fW1Q6hk3n"></path></defs><g><g><use xlink:href="#b1Bi82JjrU" opacity="1" fill="#ecf0f1" fill-opacity="1"></use><g><use xlink:href="#b1Bi82JjrU" opacity="1" fill-opacity="0" stroke="#000000" stroke-width="1" stroke-opacity="0"></use></g></g><g><use xlink:href="#aAe4NgGU0" opacity="1" fill="#e64c3c" fill-opacity="1"></use><g><use xlink:href="#aAe4NgGU0" opacity="1" fill-opacity="0" stroke="#000000" stroke-width="1" stroke-opacity="0"></use></g></g><g><use xlink:href="#a2Pk76Jlte" opacity="1" fill="#ecf0f1" fill-opacity="1"></use><g><use xlink:href="#a2Pk76Jlte" opacity="1" fill-opacity="0" stroke="#000000" stroke-width="1" stroke-opacity="0"></use></g></g><g><use xlink:href="#cIwuRUTt7" opacity="1" fill="#e64c3c" fill-opacity="1"></use><g><use xlink:href="#cIwuRUTt7" opacity="1" fill-opacity="0" stroke="#000000" stroke-width="1" stroke-opacity="0"></use></g></g><g><use xlink:href="#b1wwprBbXM" opacity="1" fill="#d1d4d1" fill-opacity="1"></use><g><use xlink:href="#b1wwprBbXM" opacity="1" fill-opacity="0" stroke="#000000" stroke-width="1" stroke-opacity="0"></use></g></g><g><use xlink:href="#b2roaLEAZS" opacity="1" fill="#c03a2b" fill-opacity="1"></use><g><use xlink:href="#b2roaLEAZS" opacity="1" fill-opacity="0" stroke="#000000" stroke-width="1" stroke-opacity="0"></use></g></g><g><use xlink:href="#a2brTPW2Tb" opacity="1" fill="#d1d4d1" fill-opacity="1"></use><g><use xlink:href="#a2brTPW2Tb" opacity="1" fill-opacity="0" stroke="#000000" stroke-width="1" stroke-opacity="0"></use></g></g><g><use xlink:href="#a6m8CICDZj" opacity="1" fill="#ecf0f1" fill-opacity="1"></use><g><use xlink:href="#a6m8CICDZj" opacity="1" fill-opacity="0" stroke="#000000" stroke-width="1" stroke-opacity="0"></use></g></g><g><use xlink:href="#b3IrT4kz9" opacity="1" fill="#e64c3c" fill-opacity="1"></use><g><use xlink:href="#b3IrT4kz9" opacity="1" fill-opacity="0" stroke="#000000" stroke-width="1" stroke-opacity="0"></use></g></g><g><use xlink:href="#dduhvALKp" opacity="1" fill="#ecf0f1" fill-opacity="1"></use><g><use xlink:href="#dduhvALKp" opacity="1" fill-opacity="0" stroke="#000000" stroke-width="1" stroke-opacity="0"></use></g></g><g><use xlink:href="#c1hEwXYYCD" opacity="1" fill="#e64c3c" fill-opacity="1"></use><g><use xlink:href="#c1hEwXYYCD" opacity="1" fill-opacity="0" stroke="#000000" stroke-width="1" stroke-opacity="0"></use></g></g><g><use xlink:href="#b15OhRfEa7" opacity="1" fill="#ecf0f1" fill-opacity="1"></use><g><use xlink:href="#b15OhRfEa7" opacity="1" fill-opacity="0" stroke="#000000" stroke-width="1" stroke-opacity="0"></use></g></g><g><use xlink:href="#bG7oDjfP6" opacity="1" fill="#d1d4d1" fill-opacity="1"></use><g><use xlink:href="#bG7oDjfP6" opacity="1" fill-opacity="0" stroke="#000000" stroke-width="1" stroke-opacity="0"></use></g></g><g><use xlink:href="#g59G19VJtQ" opacity="1" fill="#d1d4d1" fill-opacity="1"></use><g><use xlink:href="#g59G19VJtQ" opacity="1" fill-opacity="0" stroke="#000000" stroke-width="1" stroke-opacity="0"></use></g></g><g><use xlink:href="#fW1Q6hk3n" opacity="1" fill="#c03a2b" fill-opacity="1"></use><g><use xlink:href="#fW1Q6hk3n" opacity="1" fill-opacity="0" stroke="#000000" stroke-width="1" stroke-opacity="0"></use></g></g></g></svg>