<?xml version="1.0" encoding="UTF-8"?>
<svg width="60px" height="60px" viewBox="0 0 60 60" version="1.1" xmlns="http://www.w3.org/2000/svg" xmlns:xlink="http://www.w3.org/1999/xlink">
    <!-- Generator: Sketch 51.3 (57544) - http://www.bohemiancoding.com/sketch -->
    <title>022 - Lighthouse</title>
    <desc>Created with Sketch.</desc>
    <defs></defs>
    <g id="Page-1" stroke="none" stroke-width="1" fill="none" fill-rule="evenodd">
        <g id="022---Lighthouse" fill-rule="nonzero">
            <polygon id="Shape" fill="#547580" points="7 50 7 40 16 40 19 52"></polygon>
            <path d="M7,40 L9.45,35.11 C9.78773001,34.4303423 10.481056,34.0004027 11.24,34 L17,34 L17,40 L7,40 Z" id="Shape" fill="#802F34"></path>
            <path d="M59,52 L59,59 L43,59 L39,53.12 C38.7139001,52.7070372 38.3780398,52.3308736 38,52 L41.61,50 C42.6146216,49.4293558 43.8453784,49.4293558 44.85,50 L46.85,51.14 C47.8546216,51.7106442 49.0853784,51.7106442 50.09,51.14 L52.09,50 C53.0946216,49.4293558 54.3253784,49.4293558 55.33,50 L59,52 Z" id="Shape" fill="#2FA8CC"></path>
            <rect id="Rectangle-path" fill="#F3D55B" x="17" y="7" width="14" height="10"></rect>
            <path d="M24,17 C23.4477153,17 23,16.5522847 23,16 L23,12 C23,11.4477153 23.4477153,11 24,11 C24.5522847,11 25,11.4477153 25,12 L25,16 C25,16.5522847 24.5522847,17 24,17 Z" id="Shape" fill="#FFFFFF"></path>
            <rect id="Rectangle-path" fill="#ECF0F1" x="17" y="20" width="14" height="6"></rect>
            <polygon id="Shape" fill="#C03A2B" points="31.65 32 16.35 32 17 27 17 26 31 26 31 27"></polygon>
            <polygon id="Shape" fill="#ECF0F1" points="32.43 38 15.57 38 16.35 32 31.65 32"></polygon>
            <polygon id="Shape" fill="#C03A2B" points="33.22 44 14.78 44 15.57 38 32.43 38"></polygon>
            <polygon id="Shape" fill="#ECF0F1" points="34 50 14 50 14.78 44 33.22 44"></polygon>
            <path d="M33,16 L33,18 C33,19.1045695 32.1045695,20 31,20 L17,20 C15.8954305,20 15,19.1045695 15,18 L15,16 L33,16 Z" id="Shape" fill="#C03A2B"></path>
            <path d="M22,1 L26,1 C27.8565154,1 29.6369928,1.73749788 30.9497475,3.05025253 C32.2625021,4.36300718 33,6.14348457 33,8 L15,8 C15,4.13400675 18.1340068,1 22,1 Z" id="Shape" fill="#C03A2B"></path>
            <path d="M43.75,59 L2,59 L4.32,52 C4.74519166,50.7973462 5.88440607,49.9950826 7.16,50 L34,50 C35.8579321,50.0189412 37.641538,50.7323836 39,52 C39.3785102,52.3378627 39.7143306,52.720698 40,53.14 L43.75,59 Z" id="Shape" fill="#7F8284"></path>
            <path d="M59,60 L1,60 C0.44771525,60 6.76353751e-17,59.5522847 0,59 C-6.76353751e-17,58.4477153 0.44771525,58 1,58 L59,58 C59.5522847,58 60,58.4477153 60,59 C60,59.5522847 59.5522847,60 59,60 Z" id="Shape" fill="#2FA8CC"></path>
            <path d="M40,10 C39.6234418,9.9988587 39.2794502,9.78627965 39.11,9.45 C38.8630757,8.95834645 39.059687,8.35957563 39.55,8.11 L55.55,0.11 C56.0335272,-0.0913503662 56.5904963,0.114514109 56.8268341,0.581937816 C57.0631719,1.04936152 56.8987927,1.61995266 56.45,1.89 L40.45,9.89 C40.3116796,9.96403657 40.1568771,10.0018772 40,10 Z" id="Shape" fill="#F3D55B"></path>
            <path d="M56,24 C55.8431229,24.0018772 55.6883204,23.9640366 55.55,23.89 L39.55,15.89 C39.2039614,15.7459026 38.9675677,15.4203849 38.9376183,15.0467409 C38.9076689,14.6730969 39.0891939,14.3140809 39.4078617,14.1167041 C39.7265295,13.9193272 40.1288192,13.9167393 40.45,14.11 L56.45,22.11 C56.940313,22.3595756 57.1369243,22.9583464 56.89,23.45 C56.7205498,23.7862797 56.3765582,23.9988587 56,24 Z" id="Shape" fill="#F3D55B"></path>
            <path d="M24,29 C23.4477153,29 23,28.5522847 23,28 L23,24 C23,23.4477153 23.4477153,23 24,23 C24.5522847,23 25,23.4477153 25,24 L25,28 C25,28.5522847 24.5522847,29 24,29 Z" id="Shape" fill="#2FA8CC"></path>
            <path d="M24,41 C23.4477153,41 23,40.5522847 23,40 L23,36 C23,35.4477153 23.4477153,35 24,35 C24.5522847,35 25,35.4477153 25,36 L25,40 C25,40.5522847 24.5522847,41 24,41 Z" id="Shape" fill="#2FA8CC"></path>
            <path d="M31,56 C30.8431229,56.0018772 30.6883204,55.9640366 30.55,55.89 L29.19,55.21 C28.910509,55.0706963 28.6022807,54.9987763 28.29,55 L23,55 C22.4477153,55 22,54.5522847 22,54 C22,53.4477153 22.4477153,53 23,53 L28.29,53 C28.9108095,53.0023352 29.5229416,53.1459639 30.08,53.42 L31.45,54.11 C31.940313,54.3595756 32.1369243,54.9583464 31.89,55.45 C31.7205498,55.7862797 31.3765582,55.9988587 31,56 Z" id="Shape" fill="#56595E"></path>
            <path d="M9,57 C8.73419702,57.0015368 8.47871883,56.8971865 8.29,56.71 C8.10068735,56.5222334 7.99420168,56.2666375 7.99420168,56 C7.99420168,55.7333625 8.10068735,55.4777666 8.29,55.29 L9.12,54.46 C10.0595073,53.5228605 11.3330114,52.99763 12.66,53 L14,53 C14.5522847,53 15,53.4477153 15,54 C15,54.5522847 14.5522847,55 14,55 L12.66,55 C11.8646186,55.0007002 11.1020694,55.3172301 10.54,55.88 L9.71,56.71 C9.52128117,56.8971865 9.26580298,57.0015368 9,57 Z" id="Shape" fill="#56595E"></path>
        </g>
    </g>
</svg>