<?xml version="1.0" encoding="UTF-8" standalone="no"?>
<svg
   xmlns:dc="http://purl.org/dc/elements/1.1/"
   xmlns:cc="http://creativecommons.org/ns#"
   xmlns:rdf="http://www.w3.org/1999/02/22-rdf-syntax-ns#"
   xmlns:svg="http://www.w3.org/2000/svg"
   xmlns="http://www.w3.org/2000/svg"
   xmlns:sodipodi="http://sodipodi.sourceforge.net/DTD/sodipodi-0.dtd"
   xmlns:inkscape="http://www.inkscape.org/namespaces/inkscape"
   inkscape:version="1.0 (4035a4f, 2020-05-01)"
   sodipodi:docname="Like - Outline.svg"
   id="svg21"
   version="1.1"
   viewBox="0 0 52 49"
   height="49px"
   width="52px">
  <metadata
     id="metadata25">
    <rdf:RDF>
      <cc:Work
         rdf:about="">
        <dc:format>image/svg+xml</dc:format>
        <dc:type
           rdf:resource="http://purl.org/dc/dcmitype/StillImage" />
      </cc:Work>
    </rdf:RDF>
  </metadata>
  <sodipodi:namedview
     inkscape:current-layer="Like"
     inkscape:window-maximized="0"
     inkscape:window-y="603"
     inkscape:window-x="0"
     inkscape:cy="24.5"
     inkscape:cx="26"
     inkscape:zoom="15"
     showgrid="false"
     id="namedview23"
     inkscape:window-height="942"
     inkscape:window-width="1894"
     inkscape:pageshadow="2"
     inkscape:pageopacity="0"
     guidetolerance="10"
     gridtolerance="10"
     objecttolerance="10"
     borderopacity="1"
     bordercolor="#666666"
     pagecolor="#ffffff" />
  <!-- Generator: Sketch 40.1 (33804) - http://www.bohemiancoding.com/sketch -->
  <title
     id="title10">163 - Like (interaction, communication, essential, outline)</title>
  <desc
     id="desc12">Created with Sketch.</desc>
  <defs
     id="defs14" />
  <g
     stroke-linejoin="round"
     fill-rule="evenodd"
     fill="none"
     stroke-width="1"
     stroke="none"
     id="Page-1">
    <g
       stroke-width="2"
       stroke="#1A1718"
       transform="translate(-965.000000, -2883.000000)"
       id="Icons">
      <g
         transform="translate(965.000000, 2884.000000)"
         id="Like">
        <path
           id="Path"
           d="M25.85,9.048 C27.869,4.265 32.478,0.923 37.841,0.923 C45.064,0.923 50.266,7.102 50.92,14.466 C50.92,14.466 51.273,16.295 50.496,19.586 C49.438,24.068 46.951,28.05 43.598,31.088 L25.85,46.922 L8.402,31.087 C5.048,28.049 2.562,24.067 1.504,19.585 C0.727,16.293 1.08,14.465 1.08,14.465 C1.734,7.101 6.936,0.922 14.159,0.922 C19.522,0.922 23.832,4.265 25.85,9.048 L25.85,9.048 Z" />
      </g>
    </g>
  </g>
</svg>
