<?xml version="1.0" encoding="UTF-8" standalone="no"?>
<svg
   xmlns:dc="http://purl.org/dc/elements/1.1/"
   xmlns:cc="http://creativecommons.org/ns#"
   xmlns:rdf="http://www.w3.org/1999/02/22-rdf-syntax-ns#"
   xmlns:svg="http://www.w3.org/2000/svg"
   xmlns="http://www.w3.org/2000/svg"
   xmlns:sodipodi="http://sodipodi.sourceforge.net/DTD/sodipodi-0.dtd"
   xmlns:inkscape="http://www.inkscape.org/namespaces/inkscape"
   width="20"
   height="20"
   viewBox="0 0 20 20"
   version="1.1"
   id="svg35"
   sodipodi:docname="plus.svg"
   inkscape:version="1.0 (4035a4f, 2020-05-01)">
  <metadata
     id="metadata39">
    <rdf:RDF>
      <cc:Work
         rdf:about="">
        <dc:format>image/svg+xml</dc:format>
        <dc:type
           rdf:resource="http://purl.org/dc/dcmitype/StillImage" />
      </cc:Work>
    </rdf:RDF>
  </metadata>
  <sodipodi:namedview
     inkscape:document-rotation="0"
     pagecolor="#ffffff"
     bordercolor="#666666"
     borderopacity="1"
     objecttolerance="10"
     gridtolerance="10"
     guidetolerance="10"
     inkscape:pageopacity="0"
     inkscape:pageshadow="2"
     inkscape:window-width="1875"
     inkscape:window-height="924"
     id="namedview37"
     showgrid="false"
     inkscape:zoom="7.9171407"
     inkscape:cx="-1.8078913"
     inkscape:cy="0.5542186"
     inkscape:window-x="0"
     inkscape:window-y="603"
     inkscape:window-maximized="0"
     inkscape:current-layer="045---Add-Book" />
  <!-- Generator: Sketch 51.3 (57544) - http://www.bohemiancoding.com/sketch -->
  <title
     id="title10">045 - Add Book</title>
  <desc
     id="desc12">Created with Sketch.</desc>
  <defs
     id="defs14" />
  <g
     id="Page-1"
     stroke="none"
     stroke-width="1"
     fill="none"
     fill-rule="evenodd"
     transform="translate(-32,-32)">
    <g
       id="045---Add-Book"
       fill-rule="nonzero">
      <path
         d="m 50,39 h -5 v -5 c 0,-1.104569 -0.895431,-2 -2,-2 h -2 c -1.104569,0 -2,0.895431 -2,2 v 5 h -5 c -1.104569,0 -2,0.895431 -2,2 v 2 c 0,1.104569 0.895431,2 2,2 h 5 v 5 c 0,1.104569 0.895431,2 2,2 h 2 c 1.104569,0 2,-0.895431 2,-2 v -5 h 5 c 1.104569,0 2,-0.895431 2,-2 v -2 c 0,-1.104569 -0.895431,-2 -2,-2 z"
         id="path29"
         fill="#ecf0f1" />
    </g>
  </g>
</svg>
