<?xml version="1.0" encoding="UTF-8"?>
<svg width="58px" height="59px" viewBox="0 0 58 59" version="1.1" xmlns="http://www.w3.org/2000/svg" xmlns:xlink="http://www.w3.org/1999/xlink">
    <!-- Generator: Sketch 51.3 (57544) - http://www.bohemiancoding.com/sketch -->
    <title>034 - Sextant</title>
    <desc>Created with Sketch.</desc>
    <defs></defs>
    <g id="Page-1" stroke="none" stroke-width="1" fill="none" fill-rule="evenodd">
        <g id="034---Sextant" transform="translate(0.000000, -1.000000)" fill-rule="nonzero">
            <path d="M28,52.0000217 C25.6389579,52.0018545 23.2793146,51.8850405 20.93,51.65 C12.22,50.79 4.84,48.3 0.34,44.55 C-0.0250072544,44.2341134 -0.105627438,43.6994743 0.15,43.29 L2.14,40 C2.28655982,39.7573324 2.5292306,39.5882745 2.8076481,39.5348794 C3.08606559,39.4814842 3.3740626,39.5487702 3.6,39.72 C6.13441248,41.5805507 8.98322649,42.9693899 12.01,43.82 C13.2949266,44.221559 14.6000577,44.5553522 15.92,44.82 C18.583926,45.3677546 21.2845542,45.7187026 24,45.87 L24,48 C24,50.209139 25.790861,52 28,52.0000217 Z" id="Shape" fill="#F0C419"></path>
            <path d="M55.66,44.55 C51.16,48.3 43.78,50.79 35.07,51.65 C32.7206854,51.8850405 30.3610421,52.0018545 28,52.0000217 C30.209139,52 32,50.209139 32,48 L32,45.87 C34.7154458,45.7187026 37.416074,45.3677546 40.08,44.82 C41.3999423,44.5553522 42.7050734,44.221559 43.99,43.82 C47.0167735,42.9693899 49.8655875,41.5805507 52.4,39.72 C52.6275762,39.5484102 52.9170577,39.4809617 53.1970397,39.5342916 C53.4770217,39.5876215 53.7214381,39.7567649 53.87,40 L55.85,43.29 C56.1056274,43.6994743 56.0250073,44.2341134 55.66,44.55 Z" id="Shape" fill="#F0C419"></path>
            <circle id="Oval" fill="#D25627" cx="28" cy="48" r="4"></circle>
            <path d="M33.88,59.76 C31.97,59.92 30.01,60 28,60 C25.99,60 24.03,59.92 22.12,59.76 C21.5784372,59.7201764 21.0760925,59.4627108 20.7275305,59.0463206 C20.3789686,58.6299304 20.2139107,58.0901206 20.27,57.55 L20.93,51.65 C23.2793146,51.8850405 25.6389579,52.0018545 28,52 C30.3610421,52.0018545 32.7206854,51.8850405 35.07,51.65 L35.73,57.55 C35.7860893,58.0901206 35.6210314,58.6299304 35.2724695,59.0463206 C34.9239075,59.4627108 34.4215628,59.7201764 33.88,59.76 Z" id="Shape" fill="#F29C1F"></path>
            <path d="M30,40 L31,40 C31.5522847,40 32,40.4477153 32,41 L32,48 C32,45.790861 30.209139,44 28,44 C25.790861,44 24,45.790861 24,48 L24,41 C24,40.4477153 24.4477153,40 25,40 L26,40 L26,20 C23.5705937,18.999513 21.9891394,16.6273316 22,14 C22.0013782,13.7558603 22.0180777,13.5120477 22.05,13.27 C22.3182943,11.0099225 23.8513269,9.10042369 26,8.35 L26,13 C26,13.5522847 26.4477153,14 27,14 L29,14 C29.5522847,14 30,13.5522847 30,13 L30,8.35 C32.3985166,9.19194791 34.0028032,11.4580027 34,14 C33.9922271,15.0442216 33.7387218,16.0719457 33.26,17 L31,17 C30.4477153,17 30,17.4477153 30,18 L30,40 Z" id="Shape" fill="#F0C419"></path>
            <path d="M43.99,43.82 C42.7050734,44.221559 41.3999423,44.5553522 40.08,44.82 L32.03,25 L36.35,25 L43.99,43.82 Z" id="Shape" fill="#F3D55B"></path>
            <rect id="Rectangle-path" fill="#F29C1F" x="26" y="4" width="4" height="10" rx="1"></rect>
            <path d="M43,17 L43,25 L31,25 C30.4477153,25 30,24.5522847 30,24 L30,18 C30,17.4477153 30.4477153,17 31,17 L43,17 Z" id="Shape" fill="#B19046"></path>
            <path d="M47,17 L47,25 C47,26.1045695 46.1045695,27 45,27 C43.8954305,27 43,26.1045695 43,25 L43,17 C43.0032948,15.8967981 43.8967981,15.0032948 45,15 C46.1011688,15.0081672 46.9918328,15.8988312 47,17 Z" id="Shape" fill="#CB8252"></path>
            <rect id="Rectangle-path" fill="#B19046" x="47" y="18" width="7" height="6"></rect>
            <path d="M58,18 L58,24 C58,25.1045695 57.1045695,26 56,26 C54.8954305,26 54,25.1045695 54,24 L54,18 C54.0032948,16.8967981 54.8967981,16.0032948 56,16 C57.1011688,16.0081672 57.9918328,16.8988312 58,18 Z" id="Shape" fill="#CB8252"></path>
            <path d="M26,20 L15.92,44.82 C14.6000577,44.5553522 13.2949266,44.221559 12.01,43.82 L14.55,37.57 C14.6773735,37.2644498 14.6435999,36.915456 14.46,36.64 L8.34,27.47 C7.78068722,26.6330358 7.9306041,25.5108008 8.69,24.85 L22.05,13.27 C22.0180777,13.5120477 22.0013782,13.7558603 22,14 C21.9891394,16.6273316 23.5705937,18.999513 26,20 Z" id="Shape" fill="#F3D55B"></path>
            <path d="M14,28 C13.6765587,28.0003545 13.3729193,27.8442503 13.185,27.581 L8.185,20.581 C7.86412257,20.1314402 7.96844023,19.5068774 8.41800001,19.186 C8.86755979,18.8651226 9.49212256,18.9694402 9.813,19.419 L14.813,26.419 C15.0305106,26.723703 15.0596084,27.124378 14.8884041,27.4573103 C14.7171999,27.7902426 14.3743724,27.9996618 14,28 Z" id="Shape" fill="#F29C1F"></path>
            <path d="M17,25 C16.6765587,25.0003545 16.3729193,24.8442503 16.185,24.581 L11.185,17.581 C10.8641226,17.1314402 10.9684402,16.5068774 11.418,16.186 C11.8675598,15.8651226 12.4921226,15.9694402 12.813,16.419 L17.813,23.419 C18.0305106,23.723703 18.0596084,24.124378 17.8884041,24.4573103 C17.7171999,24.7902426 17.3743724,24.9996618 17,25 Z" id="Shape" fill="#F29C1F"></path>
            <path d="M20,21 C19.6653673,21.0003846 19.3527211,20.8333647 19.167,20.555 L7.167,2.555 C6.86048197,2.09522295 6.98472296,1.47401805 7.44450001,1.16750001 C7.90427706,0.860981979 8.52548196,0.985222955 8.832,1.445 L20.832,19.445 C21.0367322,19.7518587 21.0559019,20.1465085 20.881874,20.471765 C20.707846,20.7970216 20.3688869,21.0000552 20,21 Z" id="Shape" fill="#F29C1F"></path>
        </g>
    </g>
</svg>