<?xml version="1.0" encoding="UTF-8"?>
<svg width="58px" height="58px" viewBox="0 0 58 58" version="1.1" xmlns="http://www.w3.org/2000/svg" xmlns:xlink="http://www.w3.org/1999/xlink">
    <!-- Generator: Sketch 51.3 (57544) - http://www.bohemiancoding.com/sketch -->
    <title>024 - Telescope</title>
    <desc>Created with Sketch.</desc>
    <defs></defs>
    <g id="Page-1" stroke="none" stroke-width="1" fill="none" fill-rule="evenodd">
        <g id="024---Telescope" transform="translate(-1.000000, 0.000000)">
            <path d="M58.49,15.25 C57.4,16.26 56.32,17.28 55.23,18.3 C55.208858,18.3224232 55.1853929,18.3425361 55.16,18.36 C51.12,22.13 47.0833333,25.8866667 43.05,29.63 L40.29,32.21 C40.0417856,32.444401 39.6906451,32.5350179 39.36,32.45 C38.5239137,32.2385331 37.7049329,31.9644252 36.91,31.63 L36.9,31.63 L24.84,42.18 C23.79,43.15 22.73,44.11 21.68,45.06 C21.3541225,44.9077452 21.0369659,44.7374823 20.73,44.55 C18.29,47 15.83,49.46 13.38,51.9 C12.5,52.79 11.63,53.66 10.74,54.54 C11.23,55.79 11.23,56.88 10.63,57.48 C9.46,58.65 6.48,57.55 3.96,55.04 L3.93,55.01 C1.4,52.48 0.29,49.48 1.46,48.31 C2.06,47.71 3.15,47.71 4.39,48.19 C5.28,47.31 6.15,46.44 7.03,45.55 C9.48,43.11 11.94,40.65 14.38,38.2 C14.2,37.89 14.03,37.58 13.88,37.26 C14.83,36.21 15.79,35.15 16.76,34.1 L27.38,21.95 C27.0631361,21.149127 26.802504,20.3271334 26.6,19.49 C26.5223811,19.1607884 26.6164399,18.8146521 26.85,18.57 C27.71,17.66 28.56,16.76 29.43,15.85 C33.18,11.88 36.96,7.9 40.72,3.93 C40.7374639,3.90460713 40.7575768,3.88114203 40.78,3.86 C41.7,2.9 42.6,1.95 43.51,1 C43.32,2.69 47.49,4.48 51,8 C51.01,8.01 50.99,8.99 51,9 C54.96,12.95 57.18,16.17 58.49,15.25 Z" id="Shape" fill="#E4C05C" fill-rule="nonzero"></path>
            <path d="M58.61,15.15 C58.5720898,15.185764 58.532014,15.2191605 58.49,15.25 C57.18,16.17 53.05,13.83 49.08,9.86 C45.57,6.34 43.32,2.69 43.51,1 C43.5190838,0.750120732 43.6185812,0.512037784 43.79,0.33 C44.96,-0.84 49.22,1.53 53.32,5.62 C57.42,9.71 59.78,13.98 58.61,15.15 Z" id="Shape" fill="#90BAE1" fill-rule="nonzero"></path>
            <path d="M56.754,11.793 C56.7305754,11.8147948 56.7058643,11.8351648 56.68,11.854 C55.88,12.419 53.338,10.982 50.899,8.543 C48.743,6.38 47.36,4.138 47.477,3.1 C47.4824502,2.94664319 47.5435982,2.80052793 47.649,2.689 C48.368,1.97 50.985,3.426 53.504,5.939 C56.023,8.452 57.473,11.074 56.754,11.793 Z" id="Shape" fill="#B0D3F0" fill-rule="nonzero"></path>
            <path d="M20.19,38.81 L17.16,41.84 C16.0737932,40.7572619 15.1386863,39.5328774 14.38,38.2 C14.2,37.89 14.03,37.58 13.88,37.26 C14.83,36.21 15.79,35.15 16.76,34.1 C16.9431501,34.4826536 17.150227,34.853388 17.38,35.21 C17.9523863,36.1848923 18.6261221,37.0966144 19.39,37.93 C19.49,38.06 19.6,38.18 19.71,38.31 C19.7579045,38.3715414 19.8114721,38.4284571 19.87,38.48 C19.97,38.59 20.08,38.7 20.19,38.81 Z" id="Shape" fill="#F3D55B" fill-rule="nonzero"></path>
            <path d="M31.22,27.78 L20.19,38.81 C20.08,38.7 19.97,38.59 19.87,38.48 C19.81,38.42 19.76,38.37 19.71,38.31 C19.6,38.18 19.49,38.06 19.39,37.93 C18.6261221,37.0966144 17.9523863,36.1848923 17.38,35.21 C17.150227,34.853388 16.9431501,34.4826536 16.76,34.1 L27.38,21.95 C28.1433421,23.8616259 29.2404063,25.6223462 30.62,27.15 C30.82,27.36 31.02,27.58 31.22,27.78 Z" id="Shape" fill="#B19046" fill-rule="nonzero"></path>
            <path d="M36.9,31.63 L24.84,42.18 C24.4573464,41.9968499 24.086612,41.789773 23.73,41.56 C22.7579087,40.9833828 21.8466078,40.3099582 21.01,39.55 C20.88,39.45 20.76,39.34 20.63,39.23 C20.57,39.18 20.52,39.13 20.46,39.07 C20.37,38.98 20.28,38.9 20.19,38.81 L31.22,27.78 C31.6179485,28.1930943 32.0386002,28.5836994 32.48,28.95 C32.7,29.13 32.93,29.31 33.16,29.48 C33.6100106,29.8205434 34.077299,30.1376319 34.56,30.43 C34.81,30.59 35.06,30.73 35.32,30.87 C35.83,31.15 36.36,31.4 36.9,31.63 Z" id="Shape" fill="#805333" fill-rule="nonzero"></path>
            <path d="M17.16,41.84 L9.61,49.39 C8.49876107,48.2979818 7.62100329,46.9915516 7.03,45.55 C9.48,43.11 11.94,40.65 14.38,38.2 C15.1386863,39.5328774 16.0737932,40.7572619 17.16,41.84 Z" id="Shape" fill="#B19046" fill-rule="nonzero"></path>
            <path d="M20.73,44.55 C18.29,47 15.83,49.46 13.38,51.9 C11.9690466,51.3221289 10.6874159,50.4688417 9.61,49.39 L17.16,41.84 C18.2244037,42.8978277 19.4249593,43.8091738 20.73,44.55 Z" id="Shape" fill="#805333" fill-rule="nonzero"></path>
            <path d="M58.49,15.25 C57.4,16.26 56.32,17.28 55.23,18.3 C55.208858,18.3224232 55.1853929,18.3425361 55.16,18.36 C53.91,19.39 49.79,17.11 45.88,13.19 C45.87,13.18 45.85,13.16 45.85,13.15 C44.5415353,11.8599085 43.3563911,10.4504574 42.31,8.94 C42.05,8.57 41.82,8.2 41.61,7.85 C40.55,6.05 40.17,4.59 40.72,3.93 C40.7374639,3.90460713 40.7575768,3.88114203 40.78,3.86 C41.7,2.9 42.6,1.95 43.51,1 C43.32,2.69 45.57,6.34 49.08,9.86 L49.11,9.89 C53.07,13.84 57.18,16.17 58.49,15.25 Z" id="Shape" fill="#B19046" fill-rule="nonzero"></path>
            <path d="M34.3,24.7 L31.22,27.78 C29.5608675,26.1155589 28.2559772,24.1323704 27.384,21.95 C27.0648015,21.1489916 26.8031377,20.3262377 26.601,19.488 C26.5261211,19.1578364 26.6214686,18.812108 26.855,18.567 C27.712,17.66 28.569,16.759 29.434,15.85 C29.494,16.11 29.554,16.37 29.634,16.62 C29.714,16.94 29.814,17.26 29.914,17.58 C30.4084487,19.044837 31.0836597,20.4422886 31.924,21.74 C32.154,22.1 32.394,22.44 32.634,22.77 C32.6395228,22.77 32.644,22.7744772 32.644,22.78 C32.864,23.07 33.084,23.35 33.324,23.62 C33.63,23.99 33.96,24.35 34.3,24.7 Z" id="Shape" fill="#F3D55B" fill-rule="nonzero"></path>
            <path d="M45.85,13.15 L34.3,24.7 C33.96,24.35 33.63,23.99 33.32,23.62 C33.08,23.35 32.86,23.07 32.64,22.78 C32.64,22.7744772 32.6355228,22.77 32.63,22.77 C32.39,22.44 32.15,22.1 31.92,21.74 C31.0796597,20.4422886 30.4044487,19.044837 29.91,17.58 C29.81,17.26 29.71,16.94 29.63,16.62 C29.55,16.37 29.49,16.11 29.43,15.85 C33.18,11.88 36.96,7.9 40.72,3.93 C40.17,4.59 40.55,6.05 41.61,7.85 C41.82,8.21 42.05,8.57 42.31,8.94 C43.3563911,10.4504574 44.5415353,11.8599085 45.85,13.15 Z" id="Shape" fill="#F9EAB0" fill-rule="nonzero"></path>
            <path d="M55.16,18.36 C51.12,22.13 47.0833333,25.8866667 43.05,29.63 C41.3811288,29.2256144 39.7760053,28.5929871 38.28,27.75 C37.96,27.56 37.64,27.37 37.33,27.16 C37.2430442,27.1125505 37.1595077,27.0590871 37.08,27 C36.77,26.8 36.48,26.58 36.19,26.36 C35.84,26.1 35.5,25.82 35.18,25.53 C34.88,25.27 34.59,24.99 34.31,24.71 L34.3,24.7 L45.85,13.15 C45.85,13.16 45.87,13.18 45.88,13.19 C49.79,17.11 53.91,19.39 55.16,18.36 Z" id="Shape" fill="#F0C419" fill-rule="nonzero"></path>
            <path d="M10.63,57.48 C9.46,58.65 6.48,57.55 3.96,55.04 L3.93,55.01 C1.4,52.48 0.29,49.48 1.46,48.31 C2.06,47.71 3.15,47.71 4.39,48.19 C4.35609187,48.2324438 4.31934066,48.272536 4.28,48.31 C5.48123345,51.1780319 7.76196806,53.4587665 10.63,54.66 C10.6693407,54.622536 10.7060919,54.5824438 10.74,54.54 C11.23,55.79 11.23,56.88 10.63,57.48 Z" id="Shape" fill="#AF8066" fill-rule="nonzero"></path>
            <path d="M42.627,26.248 C42.2226041,26.2479137 41.8580659,26.0042725 41.703322,25.6306546 C41.5485781,25.2570366 41.6340921,24.8269943 41.92,24.541 L47.19,19.271 C47.5860542,18.9179583 48.1888837,18.9356783 48.5635169,19.3113743 C48.93815,19.6870702 48.9541623,20.2899475 48.6,20.685 L43.33,25.955 C43.1434885,26.1415726 42.8908079,26.2468861 42.627,26.248 Z" id="Shape" fill="#B19046" fill-rule="nonzero"></path>
            <path d="M9.61,49.39 L6.86,52.14 C5.75427757,51.0472618 4.87722327,49.7452781 4.28,48.31 C4.31934066,48.272536 4.35609187,48.2324438 4.39,48.19 C5.28,47.31 6.15,46.44 7.03,45.55 C7.62100329,46.9915516 8.49876107,48.2979818 9.61,49.39 Z" id="Shape" fill="#F3D55B" fill-rule="nonzero"></path>
            <polyline id="Shape" points="6.86 52.14 3.96 55.04 0 59"></polyline>
            <circle id="Oval" fill="#FFFFFF" fill-rule="nonzero" cx="48.419" cy="3.419" r="1.419"></circle>
        </g>
    </g>
</svg>